#!OML:ASF G:\JayActor3\Patient Classification 1\Patient 1\Session 5\male.ASF
:FULLY-SPECIFIED
:DEGREES
1166
root 64.0335 16.7542 -5.47284 -1323.08 -91.9101 1338.27
lowerback 21.1779 -1.26418 0.775951
upperback 6.25934 -1.97328 -1.30102
thorax -5.08804 -1.12646 -1.32945
lowerneck 6.34734 0.670647 2.83591
upperneck -17.6639 1.20218 1.0191
head -6.3993 0.190604 -0.221466
rclavicle 1.66979e-014 -2.84262e-014
rhumerus -28.7987 -0.425773 -90.7951
rradius 34.5397
rwrist -0.352311
rhand -21.3968 -8.02727
rfingers 7.12502
rthumb 4.99121 -37.9485
lclavicle 1.66979e-014 -2.84262e-014
lhumerus -27.696 -4.15161 86.7713
lradius 32.4006
lwrist 21.1923
lhand -20.529 8.84957
lfingers 7.12502
lthumb 5.82907 38.7494
rfemur -50.0059 5.70929 12.2544
rtibia 28.2845
rfoot 18.8371 -22.126
rtoes 17.8384
lfemur -15.7097 9.95836 -24.5674
ltibia 24.7199
lfoot -1.18838 -10.1094
ltoes -6.46626
1167
root 64.1476 16.7463 -5.44953 -1324.88 -91.8385 1340.12
lowerback 21.1627 -1.24484 0.814593
upperback 6.22689 -1.93656 -1.2763
thorax -5.11432 -1.10806 -1.33408
lowerneck 6.35575 0.659833 2.8171
upperneck -17.6461 1.17392 0.94869
head -6.39478 0.184682 -0.238773
rclavicle -2.38542e-015 1.70955e-014
rhumerus -28.8485 -0.347529 -90.8145
rradius 34.5059
rwrist -0.337152
rhand -21.3164 -8.03694
rfingers 7.12502
rthumb 5.06888 -37.9563
lclavicle -2.38542e-015 1.70955e-014
lhumerus -27.7706 -4.03322 86.7724
lradius 32.4446
lwrist 21.2311
lhand -20.5655 8.86298
lfingers 7.12502
lthumb 5.7939 38.7638
rfemur -50.4324 5.40998 12.5215
rtibia 29.4491
rfoot 17.931 -21.0187
rtoes 16.9168
lfemur -16.4294 10.2517 -24.7588
ltibia 25.1304
lfoot -1.51692 -10.1929
ltoes -6.9182
1168
root 64.2594 16.7356 -5.42731 -1327.76 -91.7539 1343
lowerback 21.1933 -1.22359 0.83703
upperback 6.20489 -1.90197 -1.24955
thorax -5.15247 -1.09132 -1.32591
lowerneck 6.37886 0.657545 2.80002
upperneck -17.6596 1.15763 0.876863
head -6.40265 0.18358 -0.257757
rclavicle 1.55052e-014 2.06736e-014
rhumerus -28.8767 -0.275151 -90.8257
rradius 34.4325
rwrist -0.286952
rhand -21.2615 -8.03313
rfingers 7.12502
rthumb 5.12189 -37.9512
lclavicle 1.55052e-014 2.06736e-014
lhumerus -27.8745 -3.91116 86.7657
lradius 32.4918
lwrist 21.3231
lhand -20.6109 8.85388
lfingers 7.12502
lthumb 5.75007 38.7559
rfemur -50.8303 5.0639 12.9052
rtibia 30.8426
rfoot 16.705 -19.7482
rtoes 15.8327
lfemur -17.0987 10.4679 -24.9274
ltibia 25.5981
lfoot -1.7998 -10.1456
ltoes -7.08771
1169
root 64.368 16.7229 -5.40581 -1332.05 -91.6651 1347.23
lowerback 21.2725 -1.19809 0.845551
upperback 6.19873 -1.86682 -1.22646
thorax -5.19828 -1.07507 -1.3131
lowerneck 6.40323 0.667809 2.79173
upperneck -17.692 1.15975 0.80719
head -6.41659 0.189999 -0.278868
rclavicle -1.19271e-015 3.77691e-015
rhumerus -28.8851 -0.221074 -90.8303
rradius 34.3205
rwrist -0.188098
rhand -21.2627 -7.98215
rfingers 7.12502
rthumb 5.12072 -37.9003
lclavicle -1.19271e-015 3.77691e-015
lhumerus -27.9962 -3.79588 86.7513
lradius 32.5263
lwrist 21.4384
lhand -20.6683 8.85561
lfingers 7.12502
lthumb 5.69458 38.7591
rfemur -51.1845 4.6941 13.3734
rtibia 32.4352
rfoot 15.2683 -18.3643
rtoes 14.5945
lfemur -17.6893 10.6402 -25.0845
ltibia 26.0741
lfoot -2.10922 -10.003
ltoes -7.2525
1170
root 64.4733 16.7089 -5.3849 -1338.05 -91.5861 1353.14
lowerback 21.385 -1.16906 0.849455
upperback 6.19757 -1.83018 -1.21976
thorax -5.25611 -1.05854 -1.31508
lowerneck 6.4278 0.684092 2.80082
upperneck -17.7227 1.17485 0.752669
head -6.43 0.200316 -0.298993
rclavicle -1.15295e-014 -2.76311e-014
rhumerus -28.8908 -0.196748 -90.8434
rradius 34.1864
rwrist -0.0503541
rhand -21.3158 -7.92887
rfingers 7.12502
rthumb 5.06939 -37.8482
lclavicle -1.15295e-014 -2.76311e-014
lhumerus -28.1399 -3.72263 86.7209
lradius 32.5453
lwrist 21.5593
lhand -20.7279 8.88709
lfingers 7.12502
lthumb 5.63704 38.7921
rfemur -51.5208 4.31596 13.8926
rtibia 34.2033
rfoot 13.7342 -16.9533
rtoes 13.2917
lfemur -18.1931 10.7625 -25.2302
ltibia 26.5153
lfoot -2.39888 -9.7738
ltoes -7.2795
1171
root 64.575 16.6945 -5.36459 -1345.34 -91.5304 1360.31
lowerback 21.5221 -1.1375 0.854486
upperback 6.20195 -1.79206 -1.22927
thorax -5.32116 -1.04167 -1.33519
lowerneck 6.45412 0.698879 2.82517
upperneck -17.7362 1.19427 0.722233
head -6.43835 0.21025 -0.314294
rclavicle -7.55382e-015 -2.08724e-014
rhumerus -28.9061 -0.218822 -90.8593
rradius 34.04
rwrist 0.123604
rhand -21.4226 -7.79467
rfingers 7.12502
rthumb 4.96628 -37.7165
lclavicle -7.55382e-015 -2.08724e-014
lhumerus -28.3027 -3.70108 86.6778
lradius 32.5476
lwrist 21.6572
lhand -20.7645 8.9253
lfingers 7.12502
lthumb 5.60174 38.8313
rfemur -51.8359 3.94849 14.4307
rtibia 36.1242
rfoot 12.2431 -15.5857
rtoes 11.9169
lfemur -18.5991 10.8525 -25.3696
ltibia 26.8912
lfoot -2.67557 -9.45362
ltoes -7.23535
1172
root 64.674 16.6799 -5.34514 -1352.66 -91.505 1367.5
lowerback 21.6443 -1.11132 0.853459
upperback 6.20855 -1.76246 -1.24305
thorax -5.37628 -1.02886 -1.35471
lowerneck 6.45648 0.716651 2.85638
upperneck -17.7299 1.22038 0.708542
head -6.43623 0.222011 -0.325757
rclavicle -4.75095e-014 -3.37934e-014
rhumerus -28.9158 -0.268482 -90.8681
rradius 33.8947
rwrist 0.298175
rhand -21.5449 -7.62644
rfingers 7.12502
rthumb 4.84822 -37.551
lclavicle -4.75095e-014 -3.37934e-014
lhumerus -28.4583 -3.70038 86.6315
lradius 32.5232
lwrist 21.6885
lhand -20.7736 8.97528
lfingers 7.12502
lthumb 5.59296 38.8815
rfemur -52.1756 3.58247 14.961
rtibia 38.1789
rfoot 10.885 -14.3328
rtoes 10.5849
lfemur -18.9753 10.9252 -25.5238
ltibia 27.1964
lfoot -3.01383 -9.10682
ltoes -7.35295
1173
root 64.7702 16.665 -5.32629 -1359.91 -91.5039 1374.64
lowerback 21.7304 -1.08721 0.839169
upperback 6.21816 -1.7377 -1.25053
thorax -5.40917 -1.01815 -1.35945
lowerneck 6.44498 0.732254 2.87846
upperneck -17.7042 1.24471 0.712398
head -6.42573 0.232568 -0.329886
rclavicle 9.74045e-015 -9.34288e-015
rhumerus -28.9198 -0.320821 -90.8648
rradius 33.7753
rwrist 0.433981
rhand -21.6538 -7.49795
rfingers 7.12502
rthumb 4.74311 -37.4249
lclavicle 9.74045e-015 -9.34288e-015
lhumerus -28.5972 -3.69513 86.5916
lradius 32.4667
lwrist 21.6414
lhand -20.7382 9.02921
lfingers 7.12502
lthumb 5.62708 38.9345
rfemur -52.5434 3.22975 15.4777
rtibia 40.3426
rfoot 9.72538 -13.1938
rtoes 9.25962
lfemur -19.3232 10.9681 -25.678
ltibia 27.4371
lfoot -3.36411 -8.72811
ltoes -7.46035
1174
root 64.864 16.6493 -5.30846 -1365.68 -91.5153 1380.33
lowerback 21.7483 -1.07311 0.804505
upperback 6.23409 -1.72823 -1.23894
thorax -5.39959 -1.01435 -1.32946
lowerneck 6.42689 0.746609 2.87819
upperneck -17.676 1.26575 0.726482
head -6.41348 0.242202 -0.326759
rclavicle 2.20651e-014 2.14687e-014
rhumerus -28.9134 -0.356739 -90.8358
rradius 33.6959
rwrist 0.498683
rhand -21.7286 -7.44909
rfingers 7.12502
rthumb 4.67083 -37.3776
lclavicle 2.20651e-014 2.14687e-014
lhumerus -28.7086 -3.66513 86.5701
lradius 32.3846
lwrist 21.515
lhand -20.6675 9.07437
lfingers 7.12502
lthumb 5.69542 38.9778
rfemur -52.9376 2.87086 15.9747
rtibia 42.5909
rfoot 8.76318 -12.154
rtoes 7.95621
lfemur -19.6791 10.9786 -25.8388
ltibia 27.6251
lfoot -3.74093 -8.36469
ltoes -7.54022
1175
root 64.9551 16.6322 -5.29146 -1371.06 -91.5295 1385.67
lowerback 21.7023 -1.05641 0.751828
upperback 6.25724 -1.71727 -1.20574
thorax -5.3482 -1.00945 -1.26761
lowerneck 6.40845 0.759981 2.86667
upperneck -17.6616 1.28288 0.735783
head -6.40559 0.250631 -0.323009
rclavicle -1.88845e-014 -2.88238e-014
rhumerus -28.8971 -0.379826 -90.778
rradius 33.6585
rwrist 0.483559
rhand -21.7534 -7.47384
rfingers 7.12502
rthumb 4.64685 -37.4029
lclavicle -1.88845e-014 -2.88238e-014
lhumerus -28.7993 -3.6203 86.569
lradius 32.2818
lwrist 21.3361
lhand -20.5712 9.14425
lfingers 7.12502
lthumb 5.78832 39.0452
rfemur -53.3636 2.53412 16.4594
rtibia 44.9469
rfoot 7.93006 -11.1975
rtoes 6.74032
lfemur -20.0943 10.989 -25.9958
ltibia 27.8655
lfoot -4.20712 -8.04027
ltoes -7.70593
1176
root 65.0439 16.6162 -5.27556 -1375.92 -91.539 1390.5
lowerback 21.5953 -1.04215 0.687571
upperback 6.28736 -1.71001 -1.15334
thorax -5.25725 -1.00609 -1.17883
lowerneck 6.39297 0.7733 2.83825
upperneck -17.6675 1.29753 0.744852
head -6.40479 0.258354 -0.316375
rclavicle -1.25234e-014 7.95139e-016
rhumerus -28.8709 -0.379753 -90.7021
rradius 33.6663
rwrist 0.381248
rhand -21.7465 -7.6354
rfingers 7.12502
rthumb 4.65353 -37.5643
lclavicle -1.25234e-014 7.95139e-016
lhumerus -28.8629 -3.55164 86.5799
lradius 32.1569
lwrist 21.1288
lhand -20.4498 9.19492
lfingers 7.12502
lthumb 5.90552 39.0926
rfemur -53.8009 2.23521 16.9114
rtibia 47.3248
rfoot 7.22641 -10.3676
rtoes 5.55822
lfemur -20.5017 10.9846 -26.1304
ltibia 28.0609
lfoot -4.61398 -7.73653
ltoes -7.70454
